<svg width="15" height="13" viewBox="0 0 15 13" fill="none" xmlns="http://www.w3.org/2000/svg">
<path fill-rule="evenodd" clip-rule="evenodd" d="M3.36589 3.95833C4.4105 3.95833 5.14714 3.19098 5.14714 2.375C5.14714 1.55902 4.4105 0.791667 3.36589 0.791667C2.32127 0.791667 1.58464 1.55902 1.58464 2.375C1.58464 3.19098 2.32127 3.95833 3.36589 3.95833ZM3.36589 4.75C4.78687 4.75 5.9388 3.68668 5.9388 2.375C5.9388 1.06332 4.78687 0 3.36589 0C1.9449 0 0.792969 1.06332 0.792969 2.375C0.792969 3.68668 1.9449 4.75 3.36589 4.75Z" fill="black"/>
<path fill-rule="evenodd" clip-rule="evenodd" d="M10.8854 3.95833C11.93 3.95833 12.6667 3.19098 12.6667 2.375C12.6667 1.55902 11.93 0.791667 10.8854 0.791667C9.8408 0.791667 9.10417 1.55902 9.10417 2.375C9.10417 3.19098 9.8408 3.95833 10.8854 3.95833ZM10.8854 4.75C12.3064 4.75 13.4583 3.68668 13.4583 2.375C13.4583 1.06332 12.3064 0 10.8854 0C9.46443 0 8.3125 1.06332 8.3125 2.375C8.3125 3.68668 9.46443 4.75 10.8854 4.75Z" fill="black"/>
<path fill-rule="evenodd" clip-rule="evenodd" d="M3.36458 5.14518C1.97826 5.14518 0.791667 6.33413 0.791667 7.88003V11.8743H5.9375V7.88003C5.9375 6.33413 4.75091 5.14518 3.36458 5.14518ZM6.72917 7.88003C6.72917 5.93239 5.22279 4.35352 3.36458 4.35352C1.50638 4.35352 0 5.93239 0 7.88003V12.666H6.72917V7.88003Z" fill="black"/>
<path fill-rule="evenodd" clip-rule="evenodd" d="M10.8841 5.14518C9.49779 5.14518 8.3112 6.33413 8.3112 7.88003V11.8743H13.457V7.88003C13.457 6.33413 12.2704 5.14518 10.8841 5.14518ZM14.2487 7.88003C14.2487 5.93239 12.7423 4.35352 10.8841 4.35352C9.02591 4.35352 7.51953 5.93239 7.51953 7.88003V12.666H14.2487V7.88003Z" fill="black"/>
</svg>
